<svg width="112" height="107" viewBox="0 0 112 107" fill="none" xmlns="http://www.w3.org/2000/svg">
<g clip-path="url(#clip0_82_1740)">
<path d="M56.0008 38.759C62.7245 38.759 68.1752 33.3083 68.1752 26.5846C68.1752 19.8608 62.7245 14.4102 56.0008 14.4102C49.277 14.4102 43.8264 19.8608 43.8264 26.5846C43.8264 33.3083 49.277 38.759 56.0008 38.759Z" fill="url(#paint0_radial_82_1740)"/>
<path d="M73.0449 45.7157C72.6995 45.7157 72.3619 45.6128 72.0752 45.4202C71.7885 45.2275 71.5657 44.9539 71.4351 44.6341C71.3045 44.3143 71.272 43.9629 71.3419 43.6247C71.4118 43.2864 71.5808 42.9766 71.8275 42.7348C75.0347 39.591 77.233 35.5634 78.1422 31.1654C79.0514 26.7674 78.6302 22.1982 76.9323 18.0405C75.2344 13.8828 72.3368 10.3249 68.6089 7.82052C64.881 5.31612 60.4918 3.97865 56.0007 3.97865C51.5097 3.97865 47.1205 5.31612 43.3926 7.82052C39.6647 10.3249 36.7671 13.8828 35.0692 18.0405C33.3713 22.1982 32.9501 26.7674 33.8593 31.1654C34.7684 35.5634 36.9668 39.591 40.174 42.7348C40.3409 42.8937 40.4745 43.0843 40.5671 43.2954C40.6596 43.5065 40.7093 43.7338 40.7133 43.9643C40.7172 44.1947 40.6753 44.4237 40.5899 44.6378C40.5046 44.8519 40.3776 45.0469 40.2162 45.2115C40.0549 45.3761 39.8624 45.507 39.65 45.5965C39.4377 45.6861 39.2096 45.7325 38.9791 45.7331C38.7486 45.7338 38.5203 45.6886 38.3074 45.6002C38.0946 45.5118 37.9014 45.382 37.7391 45.2183C34.0385 41.591 31.5019 36.9437 30.4529 31.8691C29.4039 26.7944 29.8899 21.5223 31.8489 16.725C33.808 11.9276 37.1514 7.82238 41.4528 4.93268C45.7543 2.04299 50.8188 0.499756 56.0007 0.499756C61.1827 0.499756 66.2472 2.04299 70.5486 4.93268C74.8501 7.82238 78.1935 11.9276 80.1525 16.725C82.1116 21.5223 82.5976 26.7944 81.5486 31.8691C80.4995 36.9437 77.963 41.591 74.2624 45.2183C73.9373 45.5371 73.5002 45.7157 73.0449 45.7157Z" fill="url(#paint1_radial_82_1740)"/>
<path d="M56.0007 70.0644C55.5395 70.0644 55.0971 69.8811 54.7709 69.555C54.4448 69.2288 54.2615 68.7864 54.2615 68.3252V54.4116C54.2615 53.9503 54.4448 53.5079 54.7709 53.1818C55.0971 52.8556 55.5395 52.6724 56.0007 52.6724C56.462 52.6724 56.9044 52.8556 57.2305 53.1818C57.5567 53.5079 57.7399 53.9503 57.7399 54.4116V68.3252C57.7399 68.7864 57.5567 69.2288 57.2305 69.555C56.9044 69.8811 56.462 70.0644 56.0007 70.0644Z" fill="url(#paint2_radial_82_1740)"/>
<path d="M36.8696 64.8477C36.4083 64.8477 35.966 64.6645 35.6398 64.3383C35.3136 64.0122 35.1304 63.5698 35.1304 63.1085V56.1517C35.1286 55.827 35.2178 55.5084 35.3877 55.2317C35.5577 54.9551 35.8017 54.7316 36.0922 54.5864L50.0058 47.6296C50.4186 47.4234 50.8964 47.3897 51.3342 47.5358C51.7719 47.6819 52.1336 47.996 52.3398 48.4088C52.546 48.8216 52.5797 49.2995 52.4336 49.7372C52.2875 50.1749 51.9735 50.5366 51.5606 50.7428L38.6088 57.2265V63.1085C38.6088 63.5698 38.4256 64.0122 38.0994 64.3383C37.7732 64.6645 37.3309 64.8477 36.8696 64.8477Z" fill="url(#paint3_radial_82_1740)"/>
<path d="M75.1327 64.8474C74.6715 64.8474 74.2291 64.6642 73.9029 64.338C73.5768 64.0119 73.3935 63.5695 73.3935 63.1082V57.2262L60.4417 50.7599C60.0289 50.5537 59.7148 50.192 59.5687 49.7543C59.4226 49.3165 59.4563 48.8387 59.6625 48.4259C59.8687 48.0131 60.2305 47.699 60.6682 47.5529C61.1059 47.4068 61.5837 47.4405 61.9965 47.6467L75.9101 54.6035C76.1979 54.7473 76.4402 54.9681 76.61 55.2414C76.7798 55.5147 76.8705 55.8297 76.8719 56.1514V63.1082C76.8719 63.5695 76.6887 64.0119 76.3625 64.338C76.0364 64.6642 75.594 64.8474 75.1327 64.8474Z" fill="url(#paint4_radial_82_1740)"/>
<path d="M36.8695 75.282C40.7117 75.282 43.8263 72.1673 43.8263 68.3252C43.8263 64.4831 40.7117 61.3684 36.8695 61.3684C33.0274 61.3684 29.9127 64.4831 29.9127 68.3252C29.9127 72.1673 33.0274 75.282 36.8695 75.282Z" fill="url(#paint5_radial_82_1740)"/>
<path d="M75.132 75.282C78.9741 75.282 82.0888 72.1673 82.0888 68.3252C82.0888 64.4831 78.9741 61.3684 75.132 61.3684C71.2898 61.3684 68.1752 64.4831 68.1752 68.3252C68.1752 72.1673 71.2898 75.282 75.132 75.282Z" fill="url(#paint6_radial_82_1740)"/>
<path d="M56.0007 80.4995C59.8429 80.4995 62.9576 77.3849 62.9576 73.5427C62.9576 69.7006 59.8429 66.5859 56.0007 66.5859C52.1586 66.5859 49.0439 69.7006 49.0439 73.5427C49.0439 77.3849 52.1586 80.4995 56.0007 80.4995Z" fill="url(#paint7_radial_82_1740)"/>
<path d="M56.0007 56.1509C59.8429 56.1509 62.9576 53.0362 62.9576 49.1941C62.9576 45.352 59.8429 42.2373 56.0007 42.2373C52.1586 42.2373 49.0439 45.352 49.0439 49.1941C49.0439 53.0362 52.1586 56.1509 56.0007 56.1509Z" fill="url(#paint8_linear_82_1740)"/>
</g>
<path d="M2.93445 102.5C2.74245 102.5 2.59445 102.448 2.49045 102.344C2.38645 102.24 2.33445 102.092 2.33445 101.9V94.64C2.33445 94.448 2.38645 94.3 2.49045 94.196C2.59445 94.092 2.74245 94.04 2.93445 94.04H5.25045C6.63445 94.04 7.69845 94.404 8.44245 95.132C9.19445 95.852 9.57045 96.896 9.57045 98.264C9.57045 98.944 9.47445 99.548 9.28245 100.076C9.09045 100.604 8.81045 101.048 8.44245 101.408C8.07445 101.76 7.62245 102.032 7.08645 102.224C6.55845 102.408 5.94645 102.5 5.25045 102.5H2.93445ZM3.45045 101.552H5.17845C5.72245 101.552 6.19445 101.484 6.59445 101.348C6.99445 101.212 7.32645 101.008 7.59045 100.736C7.86245 100.464 8.06645 100.124 8.20245 99.716C8.33845 99.3 8.40645 98.816 8.40645 98.264C8.40645 97.168 8.13445 96.348 7.59045 95.804C7.05445 95.26 6.25045 94.988 5.17845 94.988H3.45045V101.552ZM13.8553 102.608C13.2233 102.608 12.6793 102.488 12.2233 102.248C11.7753 102 11.4273 101.652 11.1793 101.204C10.9313 100.748 10.8073 100.212 10.8073 99.596C10.8073 98.988 10.9273 98.456 11.1673 98C11.4153 97.544 11.7513 97.188 12.1753 96.932C12.6073 96.676 13.0993 96.548 13.6513 96.548C14.0433 96.548 14.3953 96.616 14.7073 96.752C15.0273 96.88 15.2993 97.068 15.5233 97.316C15.7473 97.564 15.9153 97.868 16.0273 98.228C16.1473 98.58 16.2073 98.98 16.2073 99.428C16.2073 99.556 16.1673 99.656 16.0873 99.728C16.0153 99.792 15.9073 99.824 15.7633 99.824H11.6593V99.128H15.4873L15.2833 99.296C15.2833 98.88 15.2193 98.528 15.0913 98.24C14.9713 97.944 14.7913 97.72 14.5513 97.568C14.3193 97.416 14.0273 97.34 13.6753 97.34C13.2913 97.34 12.9633 97.432 12.6913 97.616C12.4193 97.792 12.2113 98.044 12.0673 98.372C11.9233 98.692 11.8513 99.064 11.8513 99.488V99.56C11.8513 100.28 12.0233 100.824 12.3673 101.192C12.7113 101.56 13.2073 101.744 13.8553 101.744C14.1113 101.744 14.3713 101.712 14.6353 101.648C14.9073 101.584 15.1673 101.468 15.4153 101.3C15.5353 101.228 15.6433 101.196 15.7393 101.204C15.8433 101.204 15.9273 101.236 15.9913 101.3C16.0553 101.356 16.0953 101.428 16.1113 101.516C16.1273 101.596 16.1153 101.684 16.0753 101.78C16.0353 101.876 15.9593 101.96 15.8473 102.032C15.5833 102.216 15.2673 102.36 14.8993 102.464C14.5393 102.56 14.1913 102.608 13.8553 102.608ZM20.0975 102.608C19.5055 102.608 18.9935 102.484 18.5615 102.236C18.1295 101.98 17.7975 101.624 17.5655 101.168C17.3335 100.704 17.2175 100.16 17.2175 99.536C17.2175 99.072 17.2815 98.656 17.4095 98.288C17.5455 97.92 17.7375 97.608 17.9855 97.352C18.2335 97.088 18.5335 96.888 18.8855 96.752C19.2455 96.616 19.6495 96.548 20.0975 96.548C20.3775 96.548 20.6735 96.592 20.9855 96.68C21.2975 96.768 21.5855 96.912 21.8495 97.112C21.9375 97.176 21.9935 97.252 22.0175 97.34C22.0415 97.42 22.0415 97.504 22.0175 97.592C22.0015 97.68 21.9615 97.756 21.8975 97.82C21.8415 97.876 21.7655 97.908 21.6695 97.916C21.5815 97.924 21.4855 97.896 21.3815 97.832C21.1895 97.688 20.9855 97.584 20.7695 97.52C20.5615 97.456 20.3615 97.424 20.1695 97.424C19.8735 97.424 19.6095 97.472 19.3775 97.568C19.1535 97.664 18.9615 97.804 18.8015 97.988C18.6495 98.164 18.5335 98.384 18.4535 98.648C18.3735 98.904 18.3335 99.204 18.3335 99.548C18.3335 100.228 18.4935 100.764 18.8135 101.156C19.1335 101.54 19.5855 101.732 20.1695 101.732C20.3615 101.732 20.5615 101.704 20.7695 101.648C20.9775 101.584 21.1815 101.48 21.3815 101.336C21.4855 101.272 21.5815 101.248 21.6695 101.264C21.7575 101.272 21.8295 101.308 21.8855 101.372C21.9495 101.428 21.9895 101.5 22.0055 101.588C22.0215 101.668 22.0135 101.752 21.9815 101.84C21.9575 101.928 21.9015 102 21.8135 102.056C21.5575 102.248 21.2775 102.388 20.9735 102.476C20.6695 102.564 20.3775 102.608 20.0975 102.608ZM25.7264 102.608C25.0944 102.608 24.5504 102.488 24.0944 102.248C23.6464 102 23.2984 101.652 23.0504 101.204C22.8024 100.748 22.6784 100.212 22.6784 99.596C22.6784 98.988 22.7984 98.456 23.0384 98C23.2864 97.544 23.6224 97.188 24.0464 96.932C24.4784 96.676 24.9704 96.548 25.5224 96.548C25.9144 96.548 26.2664 96.616 26.5784 96.752C26.8984 96.88 27.1704 97.068 27.3944 97.316C27.6184 97.564 27.7864 97.868 27.8984 98.228C28.0184 98.58 28.0784 98.98 28.0784 99.428C28.0784 99.556 28.0384 99.656 27.9584 99.728C27.8864 99.792 27.7784 99.824 27.6344 99.824H23.5304V99.128H27.3584L27.1544 99.296C27.1544 98.88 27.0904 98.528 26.9624 98.24C26.8424 97.944 26.6624 97.72 26.4224 97.568C26.1904 97.416 25.8984 97.34 25.5464 97.34C25.1624 97.34 24.8344 97.432 24.5624 97.616C24.2904 97.792 24.0824 98.044 23.9384 98.372C23.7944 98.692 23.7224 99.064 23.7224 99.488V99.56C23.7224 100.28 23.8944 100.824 24.2384 101.192C24.5824 101.56 25.0784 101.744 25.7264 101.744C25.9824 101.744 26.2424 101.712 26.5064 101.648C26.7784 101.584 27.0384 101.468 27.2864 101.3C27.4064 101.228 27.5144 101.196 27.6104 101.204C27.7144 101.204 27.7984 101.236 27.8624 101.3C27.9264 101.356 27.9664 101.428 27.9824 101.516C27.9984 101.596 27.9864 101.684 27.9464 101.78C27.9064 101.876 27.8304 101.96 27.7184 102.032C27.4544 102.216 27.1384 102.36 26.7704 102.464C26.4104 102.56 26.0624 102.608 25.7264 102.608ZM29.9765 102.584C29.8085 102.584 29.6765 102.536 29.5805 102.44C29.4845 102.344 29.4365 102.204 29.4365 102.02V97.124C29.4365 96.94 29.4845 96.804 29.5805 96.716C29.6765 96.62 29.8085 96.572 29.9765 96.572C30.1445 96.572 30.2725 96.62 30.3605 96.716C30.4565 96.804 30.5045 96.94 30.5045 97.124V98.108L30.3725 97.928C30.5405 97.472 30.8125 97.128 31.1885 96.896C31.5725 96.664 32.0085 96.548 32.4965 96.548C32.9685 96.548 33.3565 96.632 33.6605 96.8C33.9645 96.968 34.1925 97.224 34.3445 97.568C34.4965 97.912 34.5725 98.348 34.5725 98.876V102.02C34.5725 102.204 34.5245 102.344 34.4285 102.44C34.3405 102.536 34.2085 102.584 34.0325 102.584C33.8565 102.584 33.7205 102.536 33.6245 102.44C33.5285 102.344 33.4805 102.204 33.4805 102.02V98.936C33.4805 98.416 33.3805 98.036 33.1805 97.796C32.9805 97.556 32.6605 97.436 32.2205 97.436C31.7085 97.436 31.2965 97.596 30.9845 97.916C30.6805 98.228 30.5285 98.652 30.5285 99.188V102.02C30.5285 102.396 30.3445 102.584 29.9765 102.584ZM38.7277 102.608C38.2557 102.608 37.8597 102.524 37.5397 102.356C37.2277 102.188 36.9917 101.944 36.8317 101.624C36.6797 101.304 36.6037 100.912 36.6037 100.448V97.496H35.8357C35.6917 97.496 35.5797 97.46 35.4997 97.388C35.4197 97.308 35.3797 97.204 35.3797 97.076C35.3797 96.94 35.4197 96.836 35.4997 96.764C35.5797 96.692 35.6917 96.656 35.8357 96.656H36.6037V95.348C36.6037 95.164 36.6517 95.028 36.7477 94.94C36.8437 94.844 36.9797 94.796 37.1557 94.796C37.3317 94.796 37.4637 94.844 37.5517 94.94C37.6477 95.028 37.6957 95.164 37.6957 95.348V96.656H39.1477C39.2997 96.656 39.4157 96.692 39.4957 96.764C39.5757 96.836 39.6157 96.94 39.6157 97.076C39.6157 97.204 39.5757 97.308 39.4957 97.388C39.4157 97.46 39.2997 97.496 39.1477 97.496H37.6957V100.352C37.6957 100.792 37.7877 101.124 37.9717 101.348C38.1557 101.572 38.4597 101.684 38.8837 101.684C39.0357 101.684 39.1637 101.672 39.2677 101.648C39.3717 101.616 39.4637 101.6 39.5437 101.6C39.6157 101.592 39.6757 101.616 39.7237 101.672C39.7797 101.728 39.8077 101.832 39.8077 101.984C39.8077 102.096 39.7877 102.2 39.7477 102.296C39.7157 102.384 39.6477 102.444 39.5437 102.476C39.4477 102.508 39.3197 102.536 39.1597 102.56C38.9997 102.592 38.8557 102.608 38.7277 102.608ZM41.1685 102.584C40.9845 102.584 40.8445 102.536 40.7485 102.44C40.6525 102.344 40.6045 102.204 40.6045 102.02V97.124C40.6045 96.94 40.6525 96.804 40.7485 96.716C40.8445 96.62 40.9765 96.572 41.1445 96.572C41.3125 96.572 41.4405 96.62 41.5285 96.716C41.6245 96.804 41.6725 96.94 41.6725 97.124V98.048H41.5525C41.6805 97.568 41.9205 97.204 42.2725 96.956C42.6245 96.708 43.0685 96.568 43.6045 96.536C43.7325 96.528 43.8365 96.56 43.9165 96.632C43.9965 96.696 44.0405 96.808 44.0485 96.968C44.0565 97.12 44.0205 97.244 43.9405 97.34C43.8605 97.428 43.7365 97.48 43.5685 97.496L43.3525 97.508C42.8245 97.564 42.4165 97.736 42.1285 98.024C41.8485 98.312 41.7085 98.708 41.7085 99.212V102.02C41.7085 102.204 41.6605 102.344 41.5645 102.44C41.4765 102.536 41.3445 102.584 41.1685 102.584ZM46.7887 102.608C46.3887 102.608 46.0247 102.528 45.6967 102.368C45.3767 102.208 45.1247 101.992 44.9407 101.72C44.7647 101.448 44.6767 101.144 44.6767 100.808C44.6767 100.376 44.7847 100.036 45.0007 99.788C45.2167 99.54 45.5807 99.364 46.0927 99.26C46.6047 99.148 47.2927 99.092 48.1567 99.092H48.7207V99.788H48.1807C47.5647 99.788 47.0767 99.816 46.7167 99.872C46.3647 99.928 46.1167 100.028 45.9727 100.172C45.8287 100.308 45.7567 100.5 45.7567 100.748C45.7567 101.06 45.8647 101.316 46.0807 101.516C46.3047 101.716 46.6087 101.816 46.9927 101.816C47.2967 101.816 47.5647 101.744 47.7967 101.6C48.0287 101.448 48.2127 101.248 48.3487 101C48.4847 100.744 48.5527 100.452 48.5527 100.124V98.744C48.5527 98.272 48.4567 97.932 48.2647 97.724C48.0727 97.508 47.7487 97.4 47.2927 97.4C47.0287 97.4 46.7567 97.436 46.4767 97.508C46.1967 97.58 45.9047 97.692 45.6007 97.844C45.4807 97.9 45.3767 97.92 45.2887 97.904C45.2007 97.88 45.1287 97.832 45.0727 97.76C45.0247 97.68 44.9967 97.596 44.9887 97.508C44.9887 97.412 45.0087 97.32 45.0487 97.232C45.0967 97.144 45.1767 97.08 45.2887 97.04C45.6407 96.864 45.9887 96.74 46.3327 96.668C46.6847 96.588 47.0127 96.548 47.3167 96.548C47.8367 96.548 48.2647 96.632 48.6007 96.8C48.9367 96.96 49.1887 97.212 49.3567 97.556C49.5247 97.892 49.6087 98.324 49.6087 98.852V102.02C49.6087 102.204 49.5647 102.344 49.4767 102.44C49.3887 102.536 49.2607 102.584 49.0927 102.584C48.9327 102.584 48.8047 102.536 48.7087 102.44C48.6207 102.344 48.5767 102.204 48.5767 102.02V101.168H48.6847C48.6207 101.464 48.5007 101.72 48.3247 101.936C48.1487 102.152 47.9287 102.32 47.6647 102.44C47.4087 102.552 47.1167 102.608 46.7887 102.608ZM53.1632 102.608C52.5632 102.608 52.1072 102.432 51.7952 102.08C51.4832 101.72 51.3272 101.204 51.3272 100.532V94.508C51.3272 94.324 51.3752 94.188 51.4712 94.1C51.5672 94.004 51.6992 93.956 51.8672 93.956C52.0432 93.956 52.1792 94.004 52.2752 94.1C52.3712 94.188 52.4192 94.324 52.4192 94.508V100.448C52.4192 100.864 52.5032 101.176 52.6712 101.384C52.8472 101.584 53.0952 101.684 53.4152 101.684C53.4872 101.684 53.5512 101.684 53.6072 101.684C53.6632 101.676 53.7192 101.668 53.7752 101.66C53.8632 101.652 53.9272 101.676 53.9672 101.732C54.0072 101.788 54.0272 101.9 54.0272 102.068C54.0272 102.22 53.9912 102.34 53.9192 102.428C53.8552 102.508 53.7472 102.56 53.5952 102.584C53.5232 102.592 53.4512 102.596 53.3792 102.596C53.3072 102.604 53.2352 102.608 53.1632 102.608ZM55.4765 102.56C55.3085 102.56 55.1765 102.508 55.0805 102.404C54.9845 102.3 54.9365 102.156 54.9365 101.972V97.184C54.9365 96.992 54.9845 96.848 55.0805 96.752C55.1765 96.648 55.3085 96.596 55.4765 96.596C55.6525 96.596 55.7885 96.648 55.8845 96.752C55.9805 96.848 56.0285 96.992 56.0285 97.184V101.972C56.0285 102.156 55.9805 102.3 55.8845 102.404C55.7965 102.508 55.6605 102.56 55.4765 102.56ZM55.4765 95.3C55.2605 95.3 55.0885 95.244 54.9605 95.132C54.8405 95.012 54.7805 94.856 54.7805 94.664C54.7805 94.456 54.8405 94.3 54.9605 94.196C55.0885 94.084 55.2605 94.028 55.4765 94.028C55.7085 94.028 55.8805 94.084 55.9925 94.196C56.1125 94.3 56.1725 94.456 56.1725 94.664C56.1725 94.856 56.1125 95.012 55.9925 95.132C55.8805 95.244 55.7085 95.3 55.4765 95.3ZM57.9642 102.5C57.8442 102.5 57.7482 102.472 57.6762 102.416C57.6042 102.36 57.5522 102.288 57.5202 102.2C57.4962 102.112 57.4962 102.016 57.5202 101.912C57.5522 101.808 57.6122 101.704 57.7002 101.6L61.0242 97.22V97.496H57.8922C57.7562 97.496 57.6482 97.46 57.5682 97.388C57.4962 97.308 57.4602 97.204 57.4602 97.076C57.4602 96.94 57.4962 96.836 57.5682 96.764C57.6482 96.692 57.7562 96.656 57.8922 96.656H61.5522C61.6882 96.656 61.7962 96.684 61.8762 96.74C61.9642 96.796 62.0202 96.868 62.0442 96.956C62.0762 97.044 62.0802 97.14 62.0562 97.244C62.0322 97.34 61.9762 97.436 61.8882 97.532L58.5162 101.96V101.66H61.8042C62.0922 101.66 62.2362 101.8 62.2362 102.08C62.2362 102.208 62.1962 102.312 62.1162 102.392C62.0442 102.464 61.9402 102.5 61.8042 102.5H57.9642ZM65.9569 102.608C65.3249 102.608 64.7809 102.488 64.3249 102.248C63.8769 102 63.5289 101.652 63.2809 101.204C63.0329 100.748 62.9089 100.212 62.9089 99.596C62.9089 98.988 63.0289 98.456 63.2689 98C63.5169 97.544 63.8529 97.188 64.2769 96.932C64.7089 96.676 65.2009 96.548 65.7529 96.548C66.1449 96.548 66.4969 96.616 66.8089 96.752C67.1289 96.88 67.4009 97.068 67.6249 97.316C67.8489 97.564 68.0169 97.868 68.1289 98.228C68.2489 98.58 68.3089 98.98 68.3089 99.428C68.3089 99.556 68.2689 99.656 68.1889 99.728C68.1169 99.792 68.0089 99.824 67.8649 99.824H63.7609V99.128H67.5889L67.3849 99.296C67.3849 98.88 67.3209 98.528 67.1929 98.24C67.0729 97.944 66.8929 97.72 66.6529 97.568C66.4209 97.416 66.1289 97.34 65.7769 97.34C65.3929 97.34 65.0649 97.432 64.7929 97.616C64.5209 97.792 64.3129 98.044 64.1689 98.372C64.0249 98.692 63.9529 99.064 63.9529 99.488V99.56C63.9529 100.28 64.1249 100.824 64.4689 101.192C64.8129 101.56 65.3089 101.744 65.9569 101.744C66.2129 101.744 66.4729 101.712 66.7369 101.648C67.0089 101.584 67.2689 101.468 67.5169 101.3C67.6369 101.228 67.7449 101.196 67.8409 101.204C67.9449 101.204 68.0289 101.236 68.0929 101.3C68.1569 101.356 68.1969 101.428 68.2129 101.516C68.2289 101.596 68.2169 101.684 68.1769 101.78C68.1369 101.876 68.0609 101.96 67.9489 102.032C67.6849 102.216 67.3689 102.36 67.0009 102.464C66.6409 102.56 66.2929 102.608 65.9569 102.608ZM71.899 102.608C71.387 102.608 70.935 102.488 70.543 102.248C70.159 102 69.859 101.648 69.643 101.192C69.427 100.728 69.319 100.188 69.319 99.572C69.319 98.948 69.423 98.412 69.631 97.964C69.847 97.508 70.147 97.16 70.531 96.92C70.923 96.672 71.379 96.548 71.899 96.548C72.419 96.548 72.867 96.68 73.243 96.944C73.619 97.2 73.871 97.544 73.999 97.976H73.867V94.508C73.867 94.324 73.911 94.188 73.999 94.1C74.095 94.004 74.231 93.956 74.407 93.956C74.583 93.956 74.719 94.004 74.815 94.1C74.911 94.188 74.959 94.324 74.959 94.508V102.02C74.959 102.204 74.911 102.344 74.815 102.44C74.719 102.536 74.583 102.584 74.407 102.584C74.239 102.584 74.107 102.536 74.011 102.44C73.915 102.344 73.867 102.204 73.867 102.02V100.928L73.999 101.144C73.879 101.592 73.627 101.948 73.243 102.212C72.867 102.476 72.419 102.608 71.899 102.608ZM72.151 101.744C72.503 101.744 72.807 101.66 73.063 101.492C73.327 101.324 73.527 101.08 73.663 100.76C73.807 100.44 73.879 100.044 73.879 99.572C73.879 98.868 73.723 98.332 73.411 97.964C73.099 97.596 72.679 97.412 72.151 97.412C71.807 97.412 71.503 97.496 71.239 97.664C70.983 97.824 70.783 98.064 70.639 98.384C70.495 98.704 70.423 99.1 70.423 99.572C70.423 100.276 70.579 100.816 70.891 101.192C71.211 101.56 71.631 101.744 72.151 101.744ZM81.4949 104.516C81.0469 103.692 80.7149 102.848 80.4989 101.984C80.2909 101.112 80.1869 100.232 80.1869 99.344C80.1869 98.752 80.2309 98.164 80.3189 97.58C80.4149 96.996 80.5589 96.42 80.7509 95.852C80.9509 95.276 81.1989 94.716 81.4949 94.172C81.5589 94.06 81.6469 93.992 81.7589 93.968C81.8709 93.936 81.9749 93.944 82.0709 93.992C82.1749 94.032 82.2509 94.108 82.2989 94.22C82.3469 94.332 82.3429 94.468 82.2869 94.628C82.0789 95.156 81.9029 95.68 81.7589 96.2C81.6229 96.72 81.5189 97.24 81.4469 97.76C81.3829 98.28 81.3509 98.808 81.3509 99.344C81.3509 99.88 81.3829 100.408 81.4469 100.928C81.5189 101.448 81.6269 101.968 81.7709 102.488C81.9149 103 82.0869 103.524 82.2869 104.06C82.3509 104.22 82.3549 104.356 82.2989 104.468C82.2509 104.58 82.1749 104.656 82.0709 104.696C81.9749 104.736 81.8709 104.74 81.7589 104.708C81.6469 104.684 81.5589 104.62 81.4949 104.516ZM84.497 102.5C84.305 102.5 84.157 102.448 84.053 102.344C83.949 102.24 83.897 102.092 83.897 101.9V94.64C83.897 94.448 83.949 94.3 84.053 94.196C84.157 94.092 84.305 94.04 84.497 94.04H86.813C88.197 94.04 89.261 94.404 90.005 95.132C90.757 95.852 91.133 96.896 91.133 98.264C91.133 98.944 91.037 99.548 90.845 100.076C90.653 100.604 90.373 101.048 90.005 101.408C89.637 101.76 89.185 102.032 88.649 102.224C88.121 102.408 87.509 102.5 86.813 102.5H84.497ZM85.013 101.552H86.741C87.285 101.552 87.757 101.484 88.157 101.348C88.557 101.212 88.889 101.008 89.153 100.736C89.425 100.464 89.629 100.124 89.765 99.716C89.901 99.3 89.969 98.816 89.969 98.264C89.969 97.168 89.697 96.348 89.153 95.804C88.617 95.26 87.813 94.988 86.741 94.988H85.013V101.552ZM93.4618 102.5C93.2698 102.5 93.1218 102.448 93.0178 102.344C92.9138 102.24 92.8618 102.092 92.8618 101.9V94.64C92.8618 94.448 92.9138 94.3 93.0178 94.196C93.1218 94.092 93.2698 94.04 93.4618 94.04H97.8778C98.0298 94.04 98.1458 94.08 98.2258 94.16C98.3138 94.232 98.3578 94.34 98.3578 94.484C98.3578 94.636 98.3138 94.752 98.2258 94.832C98.1458 94.912 98.0298 94.952 97.8778 94.952H93.9418V97.748H97.6258C97.7778 97.748 97.8938 97.788 97.9738 97.868C98.0538 97.948 98.0938 98.06 98.0938 98.204C98.0938 98.356 98.0538 98.472 97.9738 98.552C97.8938 98.624 97.7778 98.66 97.6258 98.66H93.9418V101.588H97.8778C98.0298 101.588 98.1458 101.628 98.2258 101.708C98.3138 101.78 98.3578 101.892 98.3578 102.044C98.3578 102.196 98.3138 102.312 98.2258 102.392C98.1458 102.464 98.0298 102.5 97.8778 102.5H93.4618ZM99.787 102.584C99.643 102.584 99.523 102.548 99.427 102.476C99.331 102.396 99.275 102.296 99.259 102.176C99.251 102.056 99.291 101.936 99.379 101.816L102.259 97.964V98.396L99.547 94.748C99.451 94.612 99.407 94.484 99.415 94.364C99.431 94.244 99.483 94.148 99.571 94.076C99.667 93.996 99.783 93.956 99.919 93.956C100.039 93.956 100.143 93.984 100.231 94.04C100.327 94.088 100.419 94.18 100.507 94.316L102.907 97.592H102.559L104.935 94.316C105.023 94.18 105.111 94.088 105.199 94.04C105.295 93.984 105.407 93.956 105.535 93.956C105.679 93.956 105.795 93.996 105.883 94.076C105.979 94.148 106.031 94.244 106.039 94.364C106.055 94.484 106.011 94.612 105.907 94.748L103.195 98.396V97.964L106.063 101.816C106.151 101.936 106.191 102.056 106.183 102.176C106.175 102.296 106.123 102.396 106.027 102.476C105.931 102.548 105.807 102.584 105.655 102.584C105.551 102.584 105.451 102.556 105.355 102.5C105.259 102.444 105.163 102.352 105.067 102.224L102.511 98.732H102.931L100.387 102.224C100.291 102.352 100.195 102.444 100.099 102.5C100.003 102.556 99.899 102.584 99.787 102.584ZM108.151 104.516C108.087 104.62 107.999 104.684 107.887 104.708C107.775 104.74 107.667 104.732 107.563 104.684C107.467 104.644 107.395 104.568 107.347 104.456C107.299 104.352 107.307 104.22 107.371 104.06C107.587 103.524 107.763 103 107.899 102.488C108.035 101.968 108.135 101.448 108.199 100.928C108.271 100.408 108.307 99.88 108.307 99.344C108.307 98.808 108.271 98.28 108.199 97.76C108.127 97.24 108.019 96.724 107.875 96.212C107.739 95.692 107.571 95.164 107.371 94.628C107.307 94.468 107.299 94.332 107.347 94.22C107.395 94.108 107.471 94.032 107.575 93.992C107.679 93.944 107.783 93.936 107.887 93.968C107.999 93.992 108.087 94.06 108.151 94.172C108.607 94.988 108.939 95.832 109.147 96.704C109.363 97.568 109.471 98.448 109.471 99.344C109.471 99.936 109.423 100.528 109.327 101.12C109.231 101.704 109.087 102.28 108.895 102.848C108.703 103.416 108.455 103.972 108.151 104.516Z" fill="#2C2C2C"/>
<defs>
<radialGradient id="paint0_radial_82_1740" cx="0" cy="0" r="1" gradientUnits="userSpaceOnUse" gradientTransform="translate(29.1152 -12.7292) rotate(53.616) scale(65.8455 56.3938)">
<stop offset="0.529" stop-color="#0FAFFF"/>
<stop offset="1" stop-color="#0067BF"/>
</radialGradient>
<radialGradient id="paint1_radial_82_1740" cx="0" cy="0" r="1" gradientUnits="userSpaceOnUse" gradientTransform="translate(56 25.5665) rotate(-90) scale(34.6667 35.3403)">
<stop offset="0.523809" stop-color="#70777D"/>
<stop offset="1" stop-color="#70777D" stop-opacity="0"/>
</radialGradient>
<radialGradient id="paint2_radial_82_1740" cx="0" cy="0" r="1" gradientUnits="userSpaceOnUse" gradientTransform="translate(56.7656 62.2467) rotate(-93.5746) scale(17.1078 6.38811)">
<stop offset="0.646575" stop-color="#70777D"/>
<stop offset="1" stop-color="#70777D" stop-opacity="0"/>
</radialGradient>
<radialGradient id="paint3_radial_82_1740" cx="0" cy="0" r="1" gradientUnits="userSpaceOnUse" gradientTransform="translate(47.6512 57.0258) rotate(-107.338) scale(17.8969 30.5501)">
<stop offset="0.646575" stop-color="#70777D"/>
<stop offset="1" stop-color="#70777D" stop-opacity="0"/>
</radialGradient>
<radialGradient id="paint4_radial_82_1740" cx="0" cy="0" r="1" gradientUnits="userSpaceOnUse" gradientTransform="translate(72 57.0333) rotate(-107.354) scale(17.8806 30.5473)">
<stop offset="0.646575" stop-color="#70777D"/>
<stop offset="1" stop-color="#70777D" stop-opacity="0"/>
</radialGradient>
<radialGradient id="paint5_radial_82_1740" cx="0" cy="0" r="1" gradientUnits="userSpaceOnUse" gradientTransform="translate(21.5061 45.8604) rotate(53.616) scale(37.626 32.225)">
<stop offset="0.529" stop-color="#1EC8B0"/>
<stop offset="1" stop-color="#1A7F7C"/>
</radialGradient>
<radialGradient id="paint6_radial_82_1740" cx="0" cy="0" r="1" gradientUnits="userSpaceOnUse" gradientTransform="translate(59.7686 45.8604) rotate(53.616) scale(37.626 32.225)">
<stop offset="0.529" stop-color="#1EC8B0"/>
<stop offset="1" stop-color="#1A7F7C"/>
</radialGradient>
<radialGradient id="paint7_radial_82_1740" cx="0" cy="0" r="1" gradientUnits="userSpaceOnUse" gradientTransform="translate(40.6387 51.0786) rotate(53.616) scale(37.626 32.225)">
<stop offset="0.529" stop-color="#7B7BFF"/>
<stop offset="1" stop-color="#4A43CB"/>
</radialGradient>
<linearGradient id="paint8_linear_82_1740" x1="43.2466" y1="35.2805" x2="60.3488" y2="57.4565" gradientUnits="userSpaceOnUse">
<stop stop-color="#FFCD0F"/>
<stop offset="1" stop-color="#FE8401"/>
</linearGradient>
<clipPath id="clip0_82_1740">
<rect width="80" height="80" fill="white" transform="translate(16 0.5)"/>
</clipPath>
</defs>
</svg>
